<?xml version="1.0" encoding="utf-8"?>
<!-- Generator: Adobe Illustrator 26.3.1, SVG Export Plug-In . SVG Version: 6.00 Build 0)  -->
<svg version="1.0" id="Layer_1" xmlns="http://www.w3.org/2000/svg" xmlns:xlink="http://www.w3.org/1999/xlink" x="0px" y="0px"
	 viewBox="0 0 30 30" style="enable-background:new 0 0 30 30;" xml:space="preserve">
<g>
	<path d="M23.48,26.31L3.69,6.52C3.3,6.13,3.3,5.49,3.69,5.1L5.1,3.69c0.39-0.39,1.03-0.39,1.42,0l19.79,19.79
		c0.39,0.39,0.39,1.03,0,1.42l-1.41,1.41C24.51,26.7,23.87,26.7,23.48,26.31z"/>
	<path d="M26.31,6.52L6.52,26.31c-0.39,0.39-1.03,0.39-1.42,0L3.69,24.9c-0.39-0.39-0.39-1.03,0-1.42L23.48,3.69
		c0.39-0.39,1.03-0.39,1.42,0l1.41,1.41C26.7,5.49,26.7,6.13,26.31,6.52z"/>
</g>
</svg>
