<?xml version="1.0" encoding="utf-8"?>
<!-- Generator: Adobe Illustrator 26.3.1, SVG Export Plug-In . SVG Version: 6.00 Build 0)  -->
<svg version="1.1" id="Layer_1" xmlns="http://www.w3.org/2000/svg" xmlns:xlink="http://www.w3.org/1999/xlink" x="0px" y="0px"
	 viewBox="0 0 270 90" style="enable-background:new 0 0 270 90;" xml:space="preserve">
<style type="text/css">
	.st0{fill:#FFFFFF;}
	.st1{stroke:#FFFFFF;stroke-width:0.25;stroke-miterlimit:10;}
</style>
<circle class="st0" cx="44.7" cy="44.7" r="40"/>
<circle class="st1" cx="44.7" cy="44.7" r="12.1"/>
<g>
	<path class="st0" d="M94.9,11c-0.3,0-0.8-0.4-0.8-0.8V5.5c0-0.3,0.4-0.8,0.8-0.8H126c0.3,0,0.8,0.4,0.8,0.8v4.7
		c0,0.3-0.4,0.8-0.8,0.8h-11.8v25.9c0,0.3-0.3,0.7-0.7,0.7h-6.1c-0.3,0-0.7-0.3-0.7-0.7V11H94.9z"/>
	<path class="st0" d="M168.4,36.9c0,0.3-0.3,0.7-0.7,0.7h-6.1c-0.3,0-0.7-0.3-0.7-0.7V25.2h-18.9v11.6c0,0.3-0.3,0.7-0.7,0.7h-6.1
		c-0.3,0-0.7-0.3-0.7-0.7V5.4c0-0.3,0.3-0.7,0.7-0.7h6.1c0.3,0,0.7,0.3,0.7,0.7V19h18.9V5.4c0-0.3,0.3-0.7,0.7-0.7h6.1
		c0.3,0,0.7,0.3,0.7,0.7V36.9z"/>
	<path class="st0" d="M187.4,23.9v7.4h19.2c0.3,0,0.8,0.4,0.8,0.8v4.7c0,0.3-0.4,0.8-0.8,0.8h-26c-0.3,0-0.7-0.3-0.7-0.7V5.4
		c0-0.3,0.3-0.7,0.7-0.7h25.7c0.3,0,0.8,0.4,0.8,0.8v4.7c0,0.3-0.4,0.8-0.8,0.8h-18.9v6.7h17.3c0.3,0,0.8,0.4,0.8,0.8v4.7
		c0,0.3-0.4,0.8-0.8,0.8L187.4,23.9L187.4,23.9z"/>
	<path class="st0" d="M109.9,68.1c1.2,2.3,2.1,5.4,2.1,5.4h0.3c0,0,1-3.1,2.1-5.4l7.6-15.8c0.3-0.7,0.5-0.7,1.2-0.7h6.6
		c0.3,0,0.4,0.2,0.4,0.3s-0.2,0.5-0.3,0.8l-15.2,31.7h-5.1L94.5,52.8c-0.2-0.3-0.3-0.7-0.3-0.8s0.1-0.3,0.4-0.3h6.6
		c0.7,0,0.8,0,1.2,0.7L109.9,68.1z"/>
	<path class="st0" d="M145.6,83.8c0,0.3-0.3,0.7-0.7,0.7h-6.1c-0.3,0-0.7-0.3-0.7-0.7V52.3c0-0.3,0.3-0.7,0.7-0.7h6.1
		c0.3,0,0.7,0.3,0.7,0.7V83.8z"/>
	<path class="st0" d="M185.1,84.4l-16.7-17.1c-1.8-1.8-3.7-4.2-3.7-4.2h-0.2v20.6c0,0.3-0.3,0.7-0.7,0.7h-6.1
		c-0.3,0-0.7-0.3-0.7-0.7V52.3c0-0.3,0.3-0.7,0.7-0.7h5l16.6,16.8c1.8,1.8,3.8,4.4,3.8,4.4h0.2V52.3c0-0.3,0.3-0.7,0.7-0.7h6.1
		c0.3,0,0.7,0.3,0.7,0.7v31.5c0,0.3-0.3,0.7-0.7,0.7L185.1,84.4L185.1,84.4z"/>
	<path class="st0" d="M198.9,52.5c-0.2-0.3-0.3-0.5-0.3-0.6c0-0.2,0.1-0.3,0.3-0.3h6.9c0.7,0,0.9,0.1,1.3,0.7l5.6,7.9
		c1.2,1.6,2.7,4.4,2.7,4.4h0.2c0,0,1.5-2.7,2.7-4.4l5.6-7.9c0.4-0.5,0.7-0.7,1.3-0.7h6.9c0.2,0,0.3,0.2,0.3,0.3
		c0,0.1-0.1,0.3-0.3,0.6l-13.1,18.8v12.5c0,0.3-0.3,0.7-0.7,0.7h-6.1c-0.3,0-0.7-0.3-0.7-0.7V71.3L198.9,52.5z"/>
	<path class="st0" d="M248.1,78.2h16.2c0.3,0,0.8,0.4,0.8,0.8v4.7c0,0.3-0.4,0.8-0.8,0.8h-23c-0.3,0-0.7-0.3-0.7-0.7V52.3
		c0-0.3,0.3-0.7,0.7-0.7h6.1c0.3,0,0.7,0.3,0.7,0.7V78.2z"/>
</g>
<path class="st0" d="M44.7,43.5c-0.7,0-1.3,0.6-1.3,1.3s0.6,1.3,1.3,1.3s1.3-0.6,1.3-1.3S45.4,43.5,44.7,43.5z"/>
</svg>
