<?xml version="1.0" encoding="utf-8"?>
<!-- Generator: Adobe Illustrator 26.3.1, SVG Export Plug-In . SVG Version: 6.00 Build 0)  -->
<svg version="1.1" id="Layer_1" xmlns="http://www.w3.org/2000/svg" xmlns:xlink="http://www.w3.org/1999/xlink" x="0px" y="0px"
	 viewBox="0 0 270 90" style="enable-background:new 0 0 270 90;" xml:space="preserve">
<style type="text/css">
	.st0{fill:#080808;}
	.st1{fill:#EE5007;}
	.st2{fill:#B22727;stroke:#000000;stroke-width:0.25;stroke-miterlimit:10;}
	.st3{fill:#FFFFFF;}
</style>
<g>
	<circle class="st0" cx="44.65" cy="44.72" r="40.01"/>
	<circle cx="44.65" cy="44.72" r="22.4"/>
	<circle class="st1" cx="44.65" cy="44.72" r="15.63"/>
	<circle class="st2" cx="44.65" cy="44.72" r="12.12"/>
	<g>
		<path d="M94.92,10.96c-0.33,0-0.77-0.44-0.77-0.77v-4.7c0-0.33,0.44-0.77,0.77-0.77h31.06c0.33,0,0.77,0.44,0.77,0.77v4.7
			c0,0.33-0.44,0.77-0.77,0.77h-11.81v25.92c0,0.33-0.33,0.66-0.66,0.66h-6.12c-0.33,0-0.66-0.33-0.66-0.66V10.96H94.92z"/>
		<path d="M168.36,36.88c0,0.33-0.33,0.66-0.66,0.66h-6.12c-0.33,0-0.66-0.33-0.66-0.66V25.23h-18.87v11.65
			c0,0.33-0.33,0.66-0.66,0.66h-6.12c-0.33,0-0.66-0.33-0.66-0.66V5.38c0-0.33,0.33-0.66,0.66-0.66h6.12c0.33,0,0.66,0.33,0.66,0.66
			V19h18.87V5.38c0-0.33,0.33-0.66,0.66-0.66h6.12c0.33,0,0.66,0.33,0.66,0.66V36.88z"/>
		<path d="M187.36,23.86v7.44h19.25c0.33,0,0.77,0.44,0.77,0.77v4.7c0,0.33-0.44,0.77-0.77,0.77h-26.03c-0.33,0-0.66-0.33-0.66-0.66
			V5.38c0-0.33,0.33-0.66,0.66-0.66h25.7c0.33,0,0.77,0.44,0.77,0.77v4.7c0,0.33-0.44,0.77-0.77,0.77h-18.92v6.67h17.28
			c0.33,0,0.77,0.44,0.77,0.77v4.7c0,0.33-0.44,0.77-0.77,0.77H187.36z"/>
		<path d="M109.91,68.12c1.15,2.35,2.13,5.41,2.13,5.41h0.33c0,0,0.98-3.06,2.13-5.41l7.6-15.8c0.33-0.66,0.49-0.71,1.15-0.71h6.56
			c0.33,0,0.44,0.16,0.44,0.33s-0.16,0.49-0.33,0.82l-15.15,31.66h-5.14L94.48,52.75c-0.16-0.33-0.33-0.66-0.33-0.82
			s0.11-0.33,0.44-0.33h6.56c0.66,0,0.82,0.05,1.15,0.71L109.91,68.12z"/>
		<path d="M145.56,83.76c0,0.33-0.33,0.66-0.66,0.66h-6.12c-0.33,0-0.66-0.33-0.66-0.66v-31.5c0-0.33,0.33-0.66,0.66-0.66h6.12
			c0.33,0,0.66,0.33,0.66,0.66V83.76z"/>
		<path d="M185.08,84.41l-16.73-17.06c-1.75-1.75-3.72-4.21-3.72-4.21h-0.16v20.62c0,0.33-0.33,0.66-0.66,0.66h-6.12
			c-0.33,0-0.66-0.33-0.66-0.66v-31.5c0-0.33,0.33-0.66,0.66-0.66h5.03l16.57,16.84c1.8,1.8,3.83,4.43,3.83,4.43h0.22V52.26
			c0-0.33,0.33-0.66,0.66-0.66h6.12c0.33,0,0.66,0.33,0.66,0.66v31.5c0,0.33-0.33,0.66-0.66,0.66H185.08z"/>
		<path d="M198.91,52.53c-0.22-0.33-0.27-0.49-0.27-0.6c0-0.16,0.11-0.33,0.33-0.33h6.95c0.66,0,0.93,0.11,1.31,0.66l5.63,7.93
			c1.2,1.64,2.73,4.43,2.73,4.43h0.22c0,0,1.48-2.68,2.73-4.43l5.63-7.93c0.38-0.55,0.66-0.66,1.31-0.66h6.95
			c0.22,0,0.33,0.16,0.33,0.33c0,0.11-0.05,0.27-0.27,0.6l-13.07,18.76v12.47c0,0.33-0.33,0.66-0.66,0.66h-6.12
			c-0.33,0-0.66-0.33-0.66-0.66V71.29L198.91,52.53z"/>
		<path d="M248.07,78.18h16.19c0.33,0,0.77,0.44,0.77,0.77v4.7c0,0.33-0.44,0.77-0.77,0.77h-22.97c-0.33,0-0.66-0.33-0.66-0.66
			v-31.5c0-0.33,0.33-0.66,0.66-0.66h6.12c0.33,0,0.66,0.33,0.66,0.66V78.18z"/>
	</g>
	<circle cx="44.65" cy="44.72" r="3.16"/>
	<path class="st3" d="M44.65,43.45c-0.71,0-1.28,0.57-1.28,1.28c0,0.71,0.57,1.28,1.28,1.28c0.71,0,1.28-0.57,1.28-1.28
		C45.93,44.02,45.36,43.45,44.65,43.45z"/>
</g>
</svg>
